<?xml version="1.0" encoding="UTF-8" standalone="no"?>
<svg
   width="36px"
   height="50px"
   viewBox="0 0 36 50"
   version="1.1"
   id="svg20"
   xmlns="http://www.w3.org/2000/svg"
   xmlns:svg="http://www.w3.org/2000/svg"
   xmlns:rdf="http://www.w3.org/1999/02/22-rdf-syntax-ns#"
   xmlns:cc="http://creativecommons.org/ns#"
   xmlns:dc="http://purl.org/dc/elements/1.1/">
  <!-- Generator: Sketch 51.3 (57544) - http://www.bohemiancoding.com/sketch -->
  <title
     id="title2">Control/Layout/Logo</title>
  <desc
     id="desc4">Created with Sketch.</desc>
  <defs
     id="defs6" />
  <rect
     id="BG-Logo"
     fill-opacity="0"
     fill="#d8d8d8"
     fill-rule="nonzero"
     x="-12"
     y="-5"
     width="60"
     height="60"
     style="stroke:none;stroke-width:1" />
  <path
     d="m 5.3532041,31.221384 -0.083612,-0.08674 c -7.0261225,-7.061489 -7.0261225,-18.527034 0,-25.5885231 7.0261229,-7.0614892 18.4351429,-7.0614892 25.4603669,0 7.026122,7.0614891 7.026122,18.5270341 0,25.5885231 -0.02877,0.02891 -0.04316,0.04247 -0.08721,0.08855 C 26.048574,36.346498 20.196618,43.063723 17.996628,49.750226 15.78585,43.133299 10.154163,36.345595 5.3532041,31.221384 Z"
     id="Page-1-Copy-2"
     fill="#782bb2"
     style="fill-rule:nonzero;stroke:none;stroke-width:1;fill:#7abee1;fill-opacity:1" />
  <path
     d="m 10.496704,10.801347 c 4.140152,-4.160993 10.862394,-4.160993 15.002547,0 4.140153,4.160992 4.140153,10.917071 0,15.078064 -4.140153,4.160992 -10.862395,4.160992 -15.002547,0 -4.1401534,-4.160993 -4.1401534,-10.917072 0,-15.078064 z"
     id="Page-1-Copy-2-path"
     fill="#ffffff"
     style="fill-rule:nonzero;stroke:none;stroke-width:1" />
  <metadata
     id="metadata839">
    <rdf:RDF>
      <cc:Work
         rdf:about="">
        <dc:title>Control/Layout/Logo</dc:title>
      </cc:Work>
    </rdf:RDF>
  </metadata>
  <path
     d="m 18.173835,14.106156 c -2.257908,0 -4.087789,1.846796 -4.087789,4.1234 0,2.277452 1.82984,4.122932 4.087789,4.122932 2.255319,0 4.086048,-1.84548 4.086048,-4.122973 0,-2.276563 -1.830729,-4.123401 -4.086048,-4.123401 z m 0,6.483352 c -1.291544,0 -2.338673,-1.05756 -2.338673,-2.359952 0,-1.302393 1.047129,-2.358217 2.338673,-2.358217 1.289799,0 2.336039,1.055824 2.336039,2.358217 0,1.302392 -1.046662,2.359952 -2.336039,2.359952 z"
     fill="#000000"
     id="path3226"
     style="stroke-width:0.0423956;fill:#7abee1;fill-opacity:1" />
  <path
     d="m 17.491858,9.2964138 h 1.362766 v 3.3736332 h -1.362766 z"
     fill="#000000"
     id="path3228"
     style="stroke-width:0.0423956;fill:#7abee1;fill-opacity:1" />
  <path
     d="m 24.928092,12.365775 -0.963353,-0.971582 -2.363856,2.385985 0.963357,0.971155 z"
     fill="#000000"
     id="path3230"
     style="stroke-width:0.0423956;fill:#7abee1;fill-opacity:1" />
  <path
     d="m 24.029432,25.12529 0.963358,-0.971582 -2.364278,-2.385136 -0.962891,0.970734 z"
     fill="#000000"
     id="path3234"
     style="stroke-width:0.0423956;fill:#7abee1;fill-opacity:1" />
  <path
     d="m 17.520053,23.940543 h 1.362761 v 3.373632 h -1.362761 z"
     fill="#000000"
     id="path3236"
     style="stroke-width:0.0423956;fill:#7abee1;fill-opacity:1" />
  <path
     d="m 11.321514,24.244011 0.963312,0.972471 2.364745,-2.386406 -0.962043,-0.97205 z"
     fill="#000000"
     id="path3238"
     style="stroke-width:0.0423956;fill:#7abee1;fill-opacity:1" />
  <path
     d="m 9.0901043,17.649963 h 3.3441237 v 1.374893 H 9.0901043 Z"
     fill="#000000"
     id="path3240"
     style="stroke-width:0.0423956;fill:#7abee1;fill-opacity:1" />
  <path
     d="m 12.132456,11.397204 -0.961573,0.971156 2.363852,2.385095 0.962464,-0.971582 z"
     fill="#000000"
     id="path3242"
     style="stroke-width:0.0423956;fill:#7abee1;fill-opacity:1" />
</svg>
