<?xml version="1.0" standalone="no"?>
<!DOCTYPE svg PUBLIC "-//W3C//DTD SVG 20010904//EN"
 "http://www.w3.org/TR/2001/REC-SVG-20010904/DTD/svg10.dtd">
<svg version="1.0" xmlns="http://www.w3.org/2000/svg"
 width="800.000000pt" height="800.000000pt" viewBox="0 0 800.000000 800.000000"
 preserveAspectRatio="xMidYMid meet">
<metadata>
Created by potrace 1.14, written by Peter Selinger 2001-2017
</metadata>
<g transform="translate(0.000000,800.000000) scale(0.100000,-0.100000)"
fill="#000000" stroke="none">
<path d="M4019 7965 c-3 -2 -67 -6 -144 -9 -77 -4 -151 -8 -165 -10 -14 -3
-50 -7 -80 -10 -62 -7 -104 -14 -140 -22 -14 -3 -36 -7 -50 -9 -14 -2 -54 -11
-90 -20 -36 -9 -73 -18 -83 -20 -10 -2 -27 -7 -37 -10 -10 -3 -27 -8 -37 -10
-10 -2 -70 -22 -133 -45 -63 -22 -121 -42 -127 -42 -7 -1 -13 -5 -13 -10 0 -4
-7 -8 -15 -8 -18 0 -228 -99 -282 -133 -21 -13 -42 -25 -48 -27 -5 -2 -21 -10
-35 -18 -308 -191 -497 -351 -735 -622 -46 -52 -157 -200 -185 -245 -13 -22
-28 -41 -32 -43 -4 -2 -8 -10 -8 -18 0 -8 -4 -14 -8 -14 -5 0 -16 -15 -25 -32
-9 -18 -32 -60 -51 -93 -42 -73 -130 -251 -141 -285 -4 -14 -11 -29 -15 -35
-15 -19 -121 -336 -121 -360 0 -2 -5 -19 -10 -37 -6 -18 -12 -44 -15 -58 -2
-14 -9 -45 -14 -70 -14 -59 -17 -79 -25 -137 -4 -26 -9 -59 -11 -73 -13 -71
-19 -196 -18 -385 0 -209 3 -262 25 -405 6 -41 13 -91 16 -110 5 -37 57 -253
73 -305 31 -97 41 -128 68 -200 74 -197 164 -373 289 -564 107 -163 193 -270
380 -467 49 -53 208 -225 253 -274 14 -15 43 -49 65 -75 22 -26 50 -57 61 -69
24 -23 83 -92 154 -176 25 -29 50 -58 55 -64 15 -16 108 -127 125 -150 8 -11
25 -30 38 -43 12 -13 22 -28 22 -33 0 -4 4 -10 8 -12 7 -2 59 -67 193 -238 28
-35 100 -131 124 -164 11 -16 41 -57 68 -92 26 -35 47 -68 47 -74 0 -5 3 -10
8 -10 4 0 23 -25 42 -55 19 -30 38 -55 43 -55 4 0 7 -4 7 -9 0 -5 36 -64 81
-131 79 -120 143 -222 182 -290 11 -19 28 -48 38 -65 10 -16 30 -52 45 -80 15
-27 42 -77 61 -110 18 -33 37 -69 42 -80 5 -11 37 -78 71 -150 69 -145 83
-179 145 -344 23 -63 45 -110 48 -104 3 5 15 38 28 73 12 36 26 71 32 77 5 7
7 13 4 13 -3 0 4 24 17 53 35 81 39 91 38 100 -1 4 2 7 7 7 5 0 12 12 15 26
12 45 181 377 243 476 13 21 23 40 23 42 0 3 42 71 93 151 50 81 97 154 102
164 35 58 265 385 318 451 7 9 38 51 71 94 51 69 153 198 204 261 9 11 35 43
57 70 21 28 42 52 45 55 3 3 23 28 45 55 22 28 44 55 50 61 5 6 29 33 52 60
23 27 50 59 60 70 10 12 36 43 58 70 22 26 54 63 71 81 18 18 46 51 64 73 18
22 46 55 64 74 17 18 46 51 65 72 75 86 177 200 201 224 67 68 202 223 255
295 33 44 63 82 68 83 4 2 7 9 7 17 0 7 7 18 15 25 30 25 255 425 255 455 0 3
9 27 21 53 45 101 57 130 65 165 1 4 3 9 4 12 1 3 3 8 5 13 1 4 4 14 8 22 3 8
15 49 27 90 12 41 25 87 30 103 5 15 6 27 3 27 -3 0 0 6 6 13 6 8 8 17 5 20
-3 3 -2 12 2 19 4 7 9 19 10 28 1 8 4 29 8 45 36 168 50 331 50 575 0 191 -2
242 -19 365 -2 17 -6 50 -9 75 -6 48 -10 70 -26 140 -5 25 -12 56 -14 70 -17
92 -102 357 -153 475 -66 152 -165 343 -185 356 -5 3 -9 9 -8 13 2 7 -95 159
-134 211 -55 73 -147 185 -178 219 -21 21 -38 40 -38 41 0 6 -136 138 -206
201 -247 221 -558 413 -839 518 -55 21 -109 42 -120 46 -26 11 -139 46 -195
61 -25 6 -52 13 -60 15 -51 13 -199 44 -238 49 -149 21 -191 25 -305 30 -59 2
-111 6 -116 9 -4 3 -10 4 -12 1z"/>
</g>
</svg>
